<?xml version="1.0" encoding="UTF-8"?>
<svg version="1.1" xmlns="http://www.w3.org/2000/svg" width="1234" height="1228">
<path d="M0 0 C407.22 0 814.44 0 1234 0 C1234 405.24 1234 810.48 1234 1228 C826.78 1228 419.56 1228 0 1228 C0 822.76 0 417.52 0 0 Z " fill="#FEFEFE" transform="translate(0,0)"/>
<path d="M0 0 C3.96 0 7.92 0 12 0 C12 0.66 12 1.32 12 2 C12.639375 2.268125 13.27875 2.53625 13.9375 2.8125 C16 4 16 4 17 7 C17.09770633 8.60005515 17.13921382 10.20383844 17.14717102 11.80685425 C17.15790398 13.29150681 17.15790398 13.29150681 17.16885376 14.80615234 C17.17154266 15.89089844 17.17423157 16.97564453 17.17700195 18.09326172 C17.18357315 19.23658966 17.19014435 20.3799176 17.19691467 21.55789185 C17.21665639 25.34849103 17.22831086 29.13905062 17.23828125 32.9296875 C17.24235678 34.22253788 17.2464323 35.51538826 17.25063133 36.84741592 C17.26934202 42.98180547 17.2839087 49.11617513 17.2922433 55.25058734 C17.30201963 62.32887161 17.32835261 69.40684348 17.36874419 76.48501766 C17.40254193 82.61834377 17.41438806 88.75153847 17.41844749 94.88495255 C17.42332766 97.49329881 17.434982 100.1016414 17.45348549 102.70992661 C17.47774932 106.35618948 17.47693501 110.00163087 17.4699707 113.64794922 C17.48918579 115.26899567 17.48918579 115.26899567 17.50878906 116.92279053 C17.45789644 124.21833499 17.45789644 124.21833499 15.16178894 128.13796997 C12.38092486 130.53323267 10.14929629 131.10343391 6.5625 131.8125 C5.45003906 132.04582031 4.33757812 132.27914062 3.19140625 132.51953125 C0.39143605 132.94106899 -2.17689772 133.10025971 -5 133 C-5 133.66 -5 134.32 -5 135 C-5.64549805 135.14099121 -6.29099609 135.28198242 -6.95605469 135.42724609 C-9.88860448 136.07101511 -12.81928829 136.72291665 -15.75 137.375 C-16.76578125 137.59671875 -17.7815625 137.8184375 -18.828125 138.046875 C-20.29765625 138.37558594 -20.29765625 138.37558594 -21.796875 138.7109375 C-23.14797363 139.00943604 -23.14797363 139.00943604 -24.52636719 139.31396484 C-26.8939263 139.97058161 -28.82800791 140.87326455 -31 142 C-33.359375 142.4140625 -33.359375 142.4140625 -35.75 142.625 C-36.54921875 142.69976562 -37.3484375 142.77453125 -38.171875 142.8515625 C-38.77515625 142.90054688 -39.3784375 142.94953125 -40 143 C-40 143.66 -40 144.32 -40 145 C-40.57967529 145.16604736 -41.15935059 145.33209473 -41.7565918 145.50317383 C-44.40241445 146.2655833 -47.04492039 147.03892825 -49.6875 147.8125 C-50.59951172 148.07353516 -51.51152344 148.33457031 -52.45117188 148.60351562 C-57.08039386 149.96703192 -60.89484697 151.41961809 -65 154 C-67.67578125 154.73046875 -67.67578125 154.73046875 -70.3125 155.1875 C-71.19550781 155.34605469 -72.07851563 155.50460938 -72.98828125 155.66796875 C-73.65214844 155.77753906 -74.31601562 155.88710937 -75 156 C-75 156.66 -75 157.32 -75 158 C-75.92683594 158.33773437 -76.85367187 158.67546875 -77.80859375 159.0234375 C-79.00613281 159.46945313 -80.20367187 159.91546875 -81.4375 160.375 C-83.22994141 161.03628906 -83.22994141 161.03628906 -85.05859375 161.7109375 C-88.10196898 162.67085236 -88.10196898 162.67085236 -89 165 C-91.07768171 165.87801612 -93.18826555 166.67901362 -95.3125 167.4375 C-99.4324614 168.90924433 -102.53423042 170.37580802 -106 173 C-106.99 173 -107.98 173 -109 173 C-109 173.66 -109 174.32 -109 175 C-109.73992187 175.28101563 -110.47984375 175.56203125 -111.2421875 175.8515625 C-115.78922905 177.74508972 -119.82077349 180.40807587 -124 183 C-124.67933594 183.41572266 -125.35867188 183.83144531 -126.05859375 184.25976562 C-137.51437641 191.27816973 -148.40051596 198.75015528 -159 207 C-160.25100916 207.96131881 -161.50230801 208.92226077 -162.75390625 209.8828125 C-168.96959325 214.68075576 -174.97001623 219.61898044 -180.75390625 224.9375 C-182.90790083 226.91542894 -185.09986189 228.83814882 -187.3125 230.75 C-189.60112473 232.73347477 -191.77702651 234.75389494 -193.875 236.9375 C-196 239 -196 239 -198 239 C-198.2475 239.61875 -198.495 240.2375 -198.75 240.875 C-200.23740369 243.40358627 -201.43678009 243.71839004 -204 245 C-204.33 245.66 -204.66 246.32 -205 247 C-206.26422764 249.52845528 -207.52845528 249.76422764 -210 251 C-210.26296875 251.56074219 -210.5259375 252.12148438 -210.796875 252.69921875 C-212.44918988 255.85900273 -214.81878477 258.24489064 -217.25 260.8125 C-218.24419724 261.88085232 -219.2376916 262.94985917 -220.23046875 264.01953125 C-220.70790527 264.53209473 -221.1853418 265.0446582 -221.67724609 265.57275391 C-226.33728441 270.32482824 -226.33728441 270.32482824 -229.83984375 275.875 C-231.42078695 278.77073435 -233.65045265 280.6915526 -236 283 C-237.66799106 285.02196987 -239.28865021 287.04205375 -240.875 289.125 C-241.5251709 289.97433105 -241.5251709 289.97433105 -242.18847656 290.84082031 C-245.511621 295.23642292 -248.53071635 299.77470365 -251.42578125 304.46484375 C-252.87203224 306.79391793 -254.38550445 309.05316063 -255.9375 311.3125 C-260.36883236 317.89961566 -264.44908073 324.89816145 -268 332 C-268.66 332 -269.32 332 -270 332 C-270.3403125 333.175625 -270.3403125 333.175625 -270.6875 334.375 C-272.40917346 339.13009814 -274.69542758 343.50481754 -277 348 C-278.00210915 349.99894404 -279.00205814 351.99897225 -280 354 C-281.45007654 356.90760849 -282.90365417 359.81219348 -284.38671875 362.703125 C-286.61096429 367.05810426 -288.62361186 371.36589716 -290.265625 375.97265625 C-291.05601355 378.15463315 -291.92944975 380.29139837 -292.8125 382.4375 C-297.20658175 393.38890375 -301.17708608 404.53500749 -304 416 C-304.66 416 -305.32 416 -306 416 C-306.06058594 416.67546875 -306.12117187 417.3509375 -306.18359375 418.046875 C-306.26738281 418.93890625 -306.35117187 419.8309375 -306.4375 420.75 C-306.55931641 422.07257813 -306.55931641 422.07257813 -306.68359375 423.421875 C-306.96238465 425.69350452 -307.38790577 427.79851823 -308 430 C-308.66 430 -309.32 430 -310 430 C-310.11537109 430.83297607 -310.23074219 431.66595215 -310.34960938 432.52416992 C-311.60676161 441.47641059 -313.01012923 450.39584915 -314.5 459.3125 C-314.71269531 460.60478516 -314.92539062 461.89707031 -315.14453125 463.22851562 C-315.45970703 465.12053711 -315.45970703 465.12053711 -315.78125 467.05078125 C-315.96751953 468.17137939 -316.15378906 469.29197754 -316.34570312 470.4465332 C-316.82942094 473.07359023 -317.3843853 475.62296394 -318.00708008 478.21582031 C-319.21919124 483.60394828 -319.68907413 488.99653039 -320.10546875 494.49609375 C-320.18935349 495.58393661 -320.27323822 496.67177948 -320.35966492 497.79258728 C-321.20254007 509.54902831 -321.34941407 521.28029339 -321.3125 533.0625 C-321.3117598 534.70922699 -321.3117598 534.70922699 -321.31100464 536.38922119 C-321.28738212 553.65993888 -320.43726552 570.60570119 -318.36376953 587.74902344 C-317.75897591 593.15401126 -317.3758215 598.57495224 -317 604 C-316.34 604 -315.68 604 -315 604 C-314.84180786 605.02770508 -314.84180786 605.02770508 -314.68041992 606.07617188 C-314.19155929 609.21888526 -313.68963382 612.35938117 -313.1875 615.5 C-312.9390332 617.11648438 -312.9390332 617.11648438 -312.68554688 618.765625 C-311.69549903 624.89271358 -310.3011848 630.24703799 -308 636 C-307.62965293 637.78060909 -307.30922208 639.57309714 -307.0625 641.375 C-306.29591763 645.99983576 -304.92434814 649.88385265 -303.0859375 654.17578125 C-300.6128502 660.60758742 -298 668.1220677 -298 675 C-297.34 675 -296.68 675 -296 675 C-295.67128906 675.83917969 -295.34257812 676.67835938 -295.00390625 677.54296875 C-288.16139393 694.84395519 -280.91216303 711.70148777 -272.04003906 728.06982422 C-268 735.56760563 -268 735.56760563 -268 738 C-267.34 738 -266.68 738 -266 738 C-265.32845067 739.28913487 -264.66291141 740.58140204 -264 741.875 C-263.62875 742.59429688 -263.2575 743.31359375 -262.875 744.0546875 C-262 746 -262 746 -262 748 C-261.34 748 -260.68 748 -260 748 C-259.57847656 748.886875 -259.15695312 749.77375 -258.72265625 750.6875 C-257.15011732 753.71133903 -255.47491714 756.2777725 -253.4375 759 C-250.71142457 762.67795917 -248.01646577 766.37086314 -245.37426758 770.10913086 C-238.33592099 780.05799951 -231.09707663 789.87966643 -223 799 C-221.85382899 800.31220513 -220.7080137 801.62472102 -219.5625 802.9375 C-218.97082031 803.61039063 -218.37914062 804.28328125 -217.76953125 804.9765625 C-216.63303545 806.27613164 -215.5046704 807.58288181 -214.38671875 808.8984375 C-209.23927349 814.91812289 -203.63385086 820.44093477 -198 826 C-197.14664063 826.86238281 -196.29328125 827.72476563 -195.4140625 828.61328125 C-193.3352318 830.66856533 -191.22072805 832.6016357 -189 834.5 C-186.78217652 836.39588137 -184.68522041 838.3173725 -182.62890625 840.390625 C-179.84438286 843.15446099 -176.93596126 845.72469292 -173.9375 848.25 C-173.37313232 848.72598633 -172.80876465 849.20197266 -172.22729492 849.69238281 C-164.28893149 856.33001036 -155.95549092 862.42144519 -147.4453125 868.3046875 C-145.7435792 869.48448343 -144.05151291 870.67829492 -142.3671875 871.8828125 C-138.03444159 874.9739357 -133.86418857 877.82391564 -129 880 C-129 880.66 -129 881.32 -129 882 C-128.0925 882.28875 -127.185 882.5775 -126.25 882.875 C-123.67797092 883.76531776 -121.38653234 884.71494413 -119 886 C-119 886.66 -119 887.32 -119 888 C-118.13375 888.268125 -117.2675 888.53625 -116.375 888.8125 C-113.08208036 889.97111987 -110.08872125 891.38209839 -107 893 C-107 893.66 -107 894.32 -107 895 C-106.26354248 895.12076904 -105.52708496 895.24153809 -104.76831055 895.3659668 C-102.06475846 895.98516821 -100.12516494 896.81504052 -97.70703125 898.14453125 C-96.91675537 898.57233887 -96.12647949 899.00014648 -95.31225586 899.44091797 C-94.48733643 899.89354004 -93.66241699 900.34616211 -92.8125 900.8125 C-86.32341129 904.30175921 -79.93319576 907.4822205 -73 910 C-71.33213621 910.68459068 -69.66549954 911.37217739 -68 912.0625 C-63.74848353 913.77790617 -59.45655459 915.09871158 -55.03125 916.2890625 C-53 917 -53 917 -51 919 C-48.2998074 920.0339906 -45.62132025 920.98085582 -42.875 921.875 C-42.07255859 922.13966064 -41.27011719 922.40432129 -40.44335938 922.67700195 C-33.86978332 924.80462182 -27.24252641 926.5370709 -20.5234375 928.1328125 C-17.6644525 928.83646513 -14.91652852 929.63834209 -12.125 930.5625 C-6.66227215 932.29936732 -1.00452817 933.01934967 4.66943359 933.73461914 C9.50788197 934.42934117 12.42776624 935.41394716 16 939 C17.21781599 941.43563198 17.1311236 943.00171784 17.14044189 945.7245636 C17.14615204 946.72137146 17.15186218 947.71817932 17.15774536 948.74519348 C17.15886322 949.84288559 17.15998108 950.9405777 17.16113281 952.0715332 C17.16609772 953.22446869 17.17106262 954.37740417 17.17617798 955.5652771 C17.19082826 959.39378447 17.19760646 963.22225041 17.203125 967.05078125 C17.20742195 969.03376989 17.2117194 971.01675852 17.2160995 972.99974698 C17.22791602 978.52679677 17.23544969 984.05383649 17.2388947 989.58089763 C17.24337402 996.7281849 17.26091491 1003.87528079 17.2898953 1011.02250987 C17.3115179 1016.54700274 17.32159931 1022.0714418 17.32293582 1027.59597653 C17.32398359 1030.89545818 17.33133057 1034.19471903 17.34775543 1037.49416542 C17.36477668 1041.1763528 17.36294493 1044.85807264 17.35644531 1048.5402832 C17.3656601 1049.63190262 17.37487488 1050.72352203 17.3843689 1051.84822083 C17.33277757 1061.16078214 17.33277757 1061.16078214 14 1065 C7.28686394 1068.35656803 -3.44600121 1065.65205799 -10.625 1064.6875 C-12.08292969 1064.51057617 -12.08292969 1064.51057617 -13.5703125 1064.33007812 C-18.89412157 1063.63240153 -23.71466388 1062.56269328 -28.76269531 1060.74682617 C-32.7775381 1059.40664676 -36.91710364 1058.63900649 -41.0625 1057.8125 C-41.92810547 1057.63525391 -42.79371094 1057.45800781 -43.68554688 1057.27539062 C-45.7893625 1056.84532887 -47.89454212 1056.42194832 -50 1056 C-50 1055.34 -50 1054.68 -50 1054 C-50.6290625 1053.95101563 -51.258125 1053.90203125 -51.90625 1053.8515625 C-57.46913314 1053.36564801 -62.61993052 1052.49446374 -68 1051 C-68 1050.34 -68 1049.68 -68 1049 C-68.6290625 1048.87882812 -69.258125 1048.75765625 -69.90625 1048.6328125 C-75.31832326 1047.57321984 -80.66171034 1046.38400102 -86 1045 C-86 1044.34 -86 1043.68 -86 1043 C-86.67804688 1042.90203125 -87.35609375 1042.8040625 -88.0546875 1042.703125 C-94.85211181 1041.61101805 -100.71191907 1039.75341726 -107 1037 C-108.89454474 1036.20525454 -110.79044999 1035.41374673 -112.6875 1034.625 C-113.67621094 1034.21121094 -114.66492188 1033.79742188 -115.68359375 1033.37109375 C-121.76585306 1030.85652011 -127.88408704 1028.43132605 -134 1026 C-134 1025.34 -134 1024.68 -134 1024 C-134.825 1023.938125 -135.65 1023.87625 -136.5 1023.8125 C-140.36781506 1022.91461436 -142.68828514 1021.41019479 -145.953125 1019.25 C-148.37272948 1017.77237894 -150.89592156 1016.87534621 -153.5703125 1015.95703125 C-159.22633053 1013.72917849 -164.59479568 1010.77092637 -170 1008 C-170 1007.34 -170 1006.68 -170 1006 C-170.845625 1005.731875 -171.69125 1005.46375 -172.5625 1005.1875 C-176.13854067 1003.9521405 -179.53860908 1002.523012 -183 1001 C-183 1000.34 -183 999.68 -183 999 C-183.71800781 998.73316406 -184.43601562 998.46632813 -185.17578125 998.19140625 C-188.034565 996.98541864 -190.54753648 995.56301461 -193.1875 993.9375 C-196.5385079 991.86894235 -196.5385079 991.86894235 -200 990 C-200 989.34 -200 988.68 -200 988 C-200.804375 987.79375 -201.60875 987.5875 -202.4375 987.375 C-207.60520283 985.38044803 -212.58137856 982.42483897 -216.51953125 978.4765625 C-218.21351461 976.78704876 -219.98672286 975.60410611 -222 974.3125 C-234.84182482 965.88246339 -247.28263058 956.58258764 -258.58203125 946.16796875 C-261.85913439 943.22969372 -265.29867124 940.52367071 -268.7734375 937.82421875 C-271.00047492 935.9996109 -272.97965101 934.04857742 -275 932 C-276.30235002 930.84264322 -277.61483626 929.69658594 -278.9375 928.5625 C-282.09131781 925.82335083 -285.08428666 922.9945164 -288 920 C-288.845625 919.175 -289.69125 918.35 -290.5625 917.5 C-293 915 -293 915 -295 912.4375 C-296.90744373 909.93574543 -296.90744373 909.93574543 -299.375 908.125 C-302.71593019 905.42043746 -305.25936701 902.29409415 -308 899 C-309.1825771 897.62076374 -310.37015899 896.2458042 -311.5625 894.875 C-312.10003906 894.25367188 -312.63757813 893.63234375 -313.19140625 892.9921875 C-314.5642876 891.47994238 -315.99296998 890.01813352 -317.4453125 888.58203125 C-319.90658475 886.09441511 -322.11419409 883.53325522 -324.3125 880.8125 C-325.488125 879.3584375 -325.488125 879.3584375 -326.6875 877.875 C-327.8321875 876.451875 -327.8321875 876.451875 -329 875 C-329.639375 874.21625 -330.27875 873.4325 -330.9375 872.625 C-335.17586189 867.397687 -339.26237115 862.06108896 -343.3125 856.6875 C-343.82852783 856.00534424 -344.34455566 855.32318848 -344.8762207 854.62036133 C-346.94043748 851.86682967 -348.90177734 849.1644712 -350.66796875 846.20703125 C-351.94339335 844.09379108 -353.24537323 842.70905205 -355 841 C-356.05372893 839.54408446 -357.07317985 838.06292673 -358.0625 836.5625 C-358.56910156 835.80066406 -359.07570313 835.03882813 -359.59765625 834.25390625 C-361 832 -361 832 -361.99609375 829.90234375 C-363.08291095 827.8428886 -364.35763796 826.63396121 -366 825 C-366.85744351 823.58884688 -367.66792532 822.14843029 -368.4375 820.6875 C-369.93466624 817.90575607 -371.45714535 815.22626911 -373.25 812.625 C-375 810 -375 810 -376 807 C-376.474375 806.5875 -376.94875 806.175 -377.4375 805.75 C-379.74102233 803.170055 -380.18879403 800.30722434 -381 797 C-381.66 797 -382.32 797 -383 797 C-383.58007812 795.82244141 -383.58007812 795.82244141 -384.171875 794.62109375 C-387.59242115 787.68184867 -387.59242115 787.68184867 -391.375 780.9375 C-393 778 -393 778 -393 775 C-393.99 774.67 -394.98 774.34 -396 774 C-397.0625 771.63671875 -397.0625 771.63671875 -398 768.6875 C-399.23045882 764.84744311 -400.54019894 762.17184873 -403 759 C-403.921875 756.94921875 -403.921875 756.94921875 -404.75 754.6875 C-406.19763606 750.90137493 -407.81105763 747.24873342 -409.57592773 743.59936523 C-412.69114806 737.15411018 -415.13207778 730.84172396 -417.09375 723.93359375 C-417.93604599 721.20702355 -418.9574861 718.75735047 -420.1875 716.1875 C-422.11914049 712.09696719 -422.67271204 708.50020949 -423 704 C-423.66 704 -424.32 704 -425 704 C-425.50435694 702.0636296 -426.00333874 700.12585854 -426.5 698.1875 C-426.7784375 697.10855469 -427.056875 696.02960937 -427.34375 694.91796875 C-428 692 -428 692 -428 689 C-428.66 689 -429.32 689 -430 689 C-430.82477802 685.87811295 -431.6324564 682.75202885 -432.4375 679.625 C-432.66759766 678.75488281 -432.89769531 677.88476562 -433.13476562 676.98828125 C-434.66453991 671.00220798 -435.56291951 665.16225439 -436 659 C-436.66 659 -437.32 659 -438 659 C-438.10546143 658.36610352 -438.21092285 657.73220703 -438.31958008 657.07910156 C-440.52661728 643.19716485 -440.52661728 643.19716485 -443.625 629.5 C-446.27738816 619.5571679 -447.43539702 609.28020753 -447 599 C-447.66 599 -448.32 599 -449 599 C-449.3171589 596.16712443 -449.62871741 593.33379203 -449.9375 590.5 C-450.02451172 589.72785156 -450.11152344 588.95570313 -450.20117188 588.16015625 C-451.99725868 571.52972289 -452.18794484 554.98337773 -452.18530273 538.26904297 C-452.1851824 534.30037751 -452.20563609 530.33190131 -452.22460938 526.36328125 C-452.26109624 509.13987586 -451.49378502 492.15612793 -450 475 C-449.34 475 -448.68 475 -448 475 C-448.04640625 473.71351563 -448.0928125 472.42703125 -448.140625 471.1015625 C-448.13556572 463.90980233 -447.08967822 456.84862016 -446.08349609 449.74365234 C-445.75381972 447.40212953 -445.44067972 445.05880888 -445.12890625 442.71484375 C-443.74314111 432.59897119 -441.71036541 422.84784222 -439 413 C-438.82448608 412.3487616 -438.64897217 411.69752319 -438.46813965 411.02655029 C-437.11904873 406.11904873 -437.11904873 406.11904873 -436 405 C-435.63471561 403.51864102 -435.31931587 402.02487819 -435.02734375 400.52734375 C-434.85009766 399.62822266 -434.67285156 398.72910156 -434.49023438 397.80273438 C-434.30783203 396.85720703 -434.12542969 395.91167969 -433.9375 394.9375 C-433.75123047 393.98810547 -433.56496094 393.03871094 -433.37304688 392.06054688 C-432.91193217 389.70767953 -432.45441308 387.35416924 -432 385 C-431.34 385 -430.68 385 -430 385 C-429.87625 384.01644531 -429.7525 383.03289062 -429.625 382.01953125 C-429.02623185 377.83342504 -428.04708568 373.78099798 -427 369.6875 C-426.82210937 368.97271484 -426.64421875 368.25792969 -426.4609375 367.52148438 C-425.13389881 362.26779762 -425.13389881 362.26779762 -424 360 C-423.34 360 -422.68 360 -422 360 C-421.93683594 359.41476562 -421.87367188 358.82953125 -421.80859375 358.2265625 C-419.94238332 345.14344518 -414.02682423 332.88258124 -408.41015625 321.03515625 C-406.53261412 316.99401987 -404.84725691 312.88377223 -403.17578125 308.75390625 C-401.90067189 305.76735443 -400.47456468 302.89299111 -399 300 C-398.51660156 299.03320312 -398.03320312 298.06640625 -397.53515625 297.0703125 C-396.52109345 295.0421869 -395.50537148 293.01489031 -394.48828125 290.98828125 C-393.57705649 289.15865673 -392.67606872 287.32383276 -391.79296875 285.48046875 C-389.20596085 280.10298043 -389.20596085 280.10298043 -387 279 C-385.86897474 276.65961814 -385.86897474 276.65961814 -384.875 273.9375 C-384.52179688 273.01839844 -384.16859375 272.09929687 -383.8046875 271.15234375 C-383.53914063 270.44207031 -383.27359375 269.73179687 -383 269 C-382.34 269 -381.68 269 -381 269 C-380.62875 267.72962891 -380.62875 267.72962891 -380.25 266.43359375 C-378.88773308 262.69161681 -377.0778137 259.43576009 -375 256.0625 C-374.60192139 255.40918701 -374.20384277 254.75587402 -373.79370117 254.08276367 C-369.39388614 246.92093319 -364.75299265 239.93118107 -360 233 C-359.46181641 232.21399414 -358.92363281 231.42798828 -358.36914062 230.61816406 C-350.92601032 219.78147096 -343.25718551 209.22885321 -335 199 C-334.34 198.15824219 -333.68 197.31648437 -333 196.44921875 C-319.20694986 178.89181535 -303.80576741 162.73860657 -288.0625 146.9375 C-287.18658203 146.05690918 -286.31066406 145.17631836 -285.40820312 144.26904297 C-280.43259497 139.30576946 -275.3521397 134.55337607 -270 130 C-268.84727525 129.00304453 -267.69491922 128.00566252 -266.54296875 127.0078125 C-255.64001771 117.62564563 -244.60896897 108.50442777 -233 100 C-232.30922363 99.49388184 -231.61844727 98.98776367 -230.90673828 98.46630859 C-221.73907961 91.76540964 -212.53190603 85.17579481 -203 79 C-202.13761719 78.43152344 -201.27523437 77.86304688 -200.38671875 77.27734375 C-194.86979033 73.68929697 -189.22755721 70.36200771 -183.5 67.125 C-182.80487305 66.73127197 -182.10974609 66.33754395 -181.39355469 65.93188477 C-178.62215564 64.38173982 -176.01988344 63.00662781 -173 62 C-172.52433594 61.52046875 -172.04867188 61.0409375 -171.55859375 60.546875 C-169.79869854 58.80021209 -168.35910873 58.15666862 -166.0625 57.25 C-162.30166108 55.65724535 -158.87201149 53.79703324 -155.375 51.6875 C-150.7047797 48.91174647 -145.97447329 46.434145 -141.0625 44.125 C-140.43585449 43.82682373 -139.80920898 43.52864746 -139.16357422 43.22143555 C-135.80122206 41.66864183 -132.66808649 40.54290464 -129 40 C-129 39.34 -129 38.68 -129 38 C-128.29915283 37.7733667 -127.59830566 37.5467334 -126.8762207 37.31323242 C-123.68620325 36.27769759 -120.49936215 35.23270292 -117.3125 34.1875 C-116.20970703 33.83107422 -115.10691406 33.47464844 -113.97070312 33.10742188 C-112.3706543 32.58051758 -112.3706543 32.58051758 -110.73828125 32.04296875 C-109.75899658 31.72352295 -108.77971191 31.40407715 -107.77075195 31.07495117 C-104.94990942 29.98056667 -102.56856635 28.58669931 -100 27 C-97.3515625 26.15625 -97.3515625 26.15625 -94.625 25.5 C-90.93347049 24.54892865 -87.54221387 23.46764645 -84.0625 21.88671875 C-74.51225222 17.78083571 -64.4963279 14 -54 14 C-54 13.34 -54 12.68 -54 12 C-44.58997722 9.70387244 -44.58997722 9.70387244 -40 10 C-40 9.34 -40 8.68 -40 8 C-8.89035418 1.6580633 -8.89035418 1.6580633 0 2 C0 1.34 0 0.68 0 0 Z " fill="#5A69DF" transform="translate(545,87)"/>
<path d="M0 0 C2.55405839 0.41379554 5.11040309 0.81017489 7.66748047 1.20483398 C9.31998896 1.46747141 10.97233879 1.73110946 12.62451172 1.99584961 C13.37475616 2.11160843 14.12500061 2.22736725 14.89797974 2.34663391 C20.28981489 3.23880349 25.28574219 4.77508871 30.42919922 6.60131836 C38.69037292 9.2605364 46.98592326 11.59318786 55.42919922 13.60131836 C55.42919922 14.26131836 55.42919922 14.92131836 55.42919922 15.60131836 C56.20263672 15.69928711 56.97607422 15.79725586 57.77294922 15.89819336 C58.81451172 16.04772461 59.85607422 16.19725586 60.92919922 16.35131836 C61.95013672 16.49053711 62.97107422 16.62975586 64.02294922 16.77319336 C66.86222585 17.46347621 68.70785351 18.16986349 71.23388672 19.50366211 C75.67991306 21.84563251 80.22168075 23.1045822 85.05419922 24.41381836 C92.71688371 26.58972092 99.50801068 29.32884971 106.52294922 33.07397461 C108.90007384 34.32324306 111.15402929 35.33950273 113.67919922 36.22631836 C117.64663867 37.68104616 121.28861838 39.47510439 125.03466797 41.41772461 C127.45753576 42.61532484 129.90827319 43.62966481 132.42919922 44.60131836 C132.42919922 45.26131836 132.42919922 45.92131836 132.42919922 46.60131836 C133.10853516 46.69541992 133.78787109 46.78952148 134.48779297 46.88647461 C138.10499051 47.76555449 141.21221537 49.33126102 144.49169922 51.03881836 C145.40918945 51.50771484 145.40918945 51.50771484 146.34521484 51.98608398 C148.04197995 52.85372712 149.7356994 53.72731905 151.42919922 54.60131836 C152.76124721 55.27054953 154.09387388 55.93865067 155.42919922 56.60131836 C155.42919922 57.26131836 155.42919922 57.92131836 155.42919922 58.60131836 C156.41919922 58.82819336 157.40919922 59.05506836 158.42919922 59.28881836 C161.31964267 60.11589656 163.61579078 61.20805931 166.14013672 62.83569336 C166.8359082 63.28130615 167.53167969 63.72691895 168.24853516 64.18603516 C168.9681543 64.65307861 169.68777344 65.12012207 170.42919922 65.60131836 C171.48929199 66.28158081 171.48929199 66.28158081 172.57080078 66.97558594 C174.73546423 68.36627638 176.89537789 69.76407899 179.05419922 71.16381836 C179.77865234 71.63239258 180.50310547 72.1009668 181.24951172 72.58374023 C184.38761593 74.61611751 187.51453947 76.65873478 190.61669922 78.74584961 C194.14059133 81.07063954 197.78513294 83.14614198 201.45263672 85.23413086 C202.10490234 85.68530273 202.75716797 86.13647461 203.42919922 86.60131836 C203.42919922 87.26131836 203.42919922 87.92131836 203.42919922 88.60131836 C204.43660156 88.93196289 204.43660156 88.93196289 205.46435547 89.26928711 C209.33309973 91.00741859 212.48604939 93.37580308 215.86669922 95.91381836 C216.50929688 96.38754883 217.15189453 96.8612793 217.81396484 97.34936523 C221.80152353 100.30866006 225.63665417 103.3966438 229.42919922 106.60131836 C231.13579553 107.99927491 232.84411734 109.39512778 234.55419922 110.78881836 C239.63303621 114.9379229 244.67349528 119.13057423 249.70263672 123.33959961 C251.50222925 124.83238482 253.32249217 126.30063913 255.16357422 127.74194336 C257.42919922 129.60131836 257.42919922 129.60131836 259.30419922 132.03881836 C261.55376229 134.75152677 263.81381481 136.3813974 266.69482422 138.35131836 C270.9983314 141.45294516 274.14497049 145.49603245 277.42919922 149.60131836 C279.07463702 151.28894687 280.74208499 152.95535326 282.42919922 154.60131836 C285.76253255 157.93465169 289.09586589 161.26798503 292.42919922 164.60131836 C293.18716797 165.34124023 293.94513672 166.08116211 294.72607422 166.84350586 C297.68688542 169.86421787 300.44182023 173.00451056 303.17919922 176.22631836 C303.70288086 176.84023438 304.2265625 177.45415039 304.76611328 178.08666992 C309.39615386 183.53028688 313.94140979 189.03981482 318.42919922 194.60131836 C319.12916016 195.4662793 319.82912109 196.33124023 320.55029297 197.22241211 C324.61691035 202.27301253 328.58769726 207.37763827 332.42919922 212.60131836 C333.44046875 213.97030273 333.44046875 213.97030273 334.47216797 215.36694336 C337.64959366 219.69611352 340.67777275 223.98884747 343.42919922 228.60131836 C344.54022177 230.2151971 345.66560523 231.81927158 346.80419922 233.41381836 C360.42919922 252.76360828 360.42919922 252.76360828 360.42919922 257.60131836 C361.08919922 257.60131836 361.74919922 257.60131836 362.42919922 257.60131836 C365.62429652 263.38447982 368.80895191 269.17327328 371.98388672 274.9675293 C372.88244189 276.60496395 373.78309845 278.2412495 374.68701172 279.87573242 C378.61695158 286.98371039 382.01172116 293.81166683 384.42919922 301.60131836 C385.08919922 301.93131836 385.74919922 302.26131836 386.42919922 302.60131836 C387.44770741 304.86234681 388.36506108 307.09826112 389.24169922 309.41381836 C389.77487244 310.78387522 390.30873616 312.15366355 390.84326172 313.52319336 C391.10913086 314.20961914 391.375 314.89604492 391.64892578 315.60327148 C392.76913224 318.47178515 393.93738198 321.31916224 395.11669922 324.16381836 C395.49181641 325.07260742 395.86693359 325.98139648 396.25341797 326.91772461 C397.08355485 328.8124224 397.99027798 330.67443558 398.94873047 332.50756836 C400.53069005 335.81340475 401.49052116 338.99921984 402.42919922 342.53881836 C403.97237955 348.17759358 403.97237955 348.17759358 406.11669922 353.60131836 C407.44479698 356.63697038 408.02953188 359.3240462 408.42919922 362.60131836 C409.08919922 362.60131836 409.74919922 362.60131836 410.42919922 362.60131836 C411.27065878 365.68249263 412.10092984 368.76657457 412.92919922 371.85131836 C413.16767578 372.72401367 413.40615234 373.59670898 413.65185547 374.49584961 C413.87744141 375.34018555 414.10302734 376.18452148 414.33544922 377.05444336 C414.54492188 377.82949219 414.75439453 378.60454102 414.97021484 379.40307617 C415.42919922 381.60131836 415.42919922 381.60131836 415.42919922 385.60131836 C416.08919922 385.60131836 416.74919922 385.60131836 417.42919922 385.60131836 C417.64068604 386.55385498 417.64068604 386.55385498 417.85644531 387.52563477 C418.50245532 390.42659535 419.15328403 393.32645464 419.80419922 396.22631836 C420.02591797 397.2253418 420.24763672 398.22436523 420.47607422 399.25366211 C421.3637683 403.19606816 422.24199187 407.04826567 423.53857422 410.87866211 C424.59407853 414.10535731 424.94516332 417.16461365 425.30419922 420.53881836 C425.92220849 425.83576014 426.93744081 430.7755394 428.42919922 435.91381836 C431.97243853 448.53991365 432.8449948 461.52685725 432.42919922 474.60131836 C433.08919922 474.60131836 433.74919922 474.60131836 434.42919922 474.60131836 C435.17790671 481.43303049 435.69263079 488.24307707 435.98388672 495.10913086 C436.02593231 496.09583771 436.06797791 497.08254456 436.11129761 498.09915161 C436.52924179 508.79590069 436.58034492 519.48842422 436.55957031 530.19213867 C436.55416827 533.49524447 436.55958085 536.7982164 436.56591797 540.10131836 C436.56923836 551.97171034 436.32415251 563.7630638 435.42919922 575.60131836 C434.76919922 575.60131836 434.10919922 575.60131836 433.42919922 575.60131836 C433.49107422 577.48850586 433.49107422 577.48850586 433.55419922 579.41381836 C433.55419922 587.855505 432.41870184 596.22992077 431.42919922 604.60131836 C431.30109863 605.70588379 431.30109863 605.70588379 431.17041016 606.83276367 C429.79942851 618.50492505 429.79942851 618.50492505 428.41748047 622.59741211 C427.33425365 625.88990786 426.96512348 628.9053641 426.61669922 632.35131836 C425.83839885 639.08475741 424.229839 645.38929933 422.32104492 651.8828125 C420.54895181 657.96313937 419.2808088 664.03129147 418.20263672 670.26928711 C417.34651125 673.95754483 415.92616961 677.12728859 414.42919922 680.60131836 C413.61120501 683.32674746 412.9503262 686.08072588 412.30419922 688.85131836 C410.50823148 696.36422159 410.50823148 696.36422159 409.42919922 699.60131836 C408.76919922 699.60131836 408.10919922 699.60131836 407.42919922 699.60131836 C407.36861328 700.21620117 407.30802734 700.83108398 407.24560547 701.46459961 C407.16181641 702.2728418 407.07802734 703.08108398 406.99169922 703.91381836 C406.91048828 704.71432617 406.82927734 705.51483398 406.74560547 706.33959961 C406.42919922 708.60131836 406.42919922 708.60131836 405.42919922 711.60131836 C404.76919922 711.60131836 404.10919922 711.60131836 403.42919922 711.60131836 C402.76919922 714.24131836 402.10919922 716.88131836 401.42919922 719.60131836 C400.76919922 719.60131836 400.10919922 719.60131836 399.42919922 719.60131836 C399.36732422 720.48819336 399.30544922 721.37506836 399.24169922 722.28881836 C397.91218324 731.57670464 393.07694606 740.56581473 389.44482422 749.14038086 C388.70460509 750.93398875 388.0427914 752.76054182 387.42919922 754.60131836 C386.76919922 754.60131836 386.10919922 754.60131836 385.42919922 754.60131836 C385.13916016 755.74020508 385.13916016 755.74020508 384.84326172 756.90209961 C384.45267578 758.39290039 384.45267578 758.39290039 384.05419922 759.91381836 C383.79896484 760.89995117 383.54373047 761.88608398 383.28076172 762.90209961 C382.42919922 765.60131836 382.42919922 765.60131836 380.42919922 768.60131836 C379.76919922 768.60131836 379.10919922 768.60131836 378.42919922 768.60131836 C378.26484375 769.55844727 378.26484375 769.55844727 378.09716797 770.53491211 C377.93861328 771.36120117 377.78005859 772.18749023 377.61669922 773.03881836 C377.39046875 774.27438477 377.39046875 774.27438477 377.15966797 775.53491211 C376.91861328 776.21682617 376.67755859 776.89874023 376.42919922 777.60131836 C375.43919922 777.93131836 374.44919922 778.26131836 373.42919922 778.60131836 C372.47327653 780.83113929 372.47327653 780.83113929 371.86669922 783.47631836 C371.01387556 786.7816123 370.35604937 788.71104313 368.42919922 791.60131836 C367.76919922 791.60131836 367.10919922 791.60131836 366.42919922 791.60131836 C366.05794922 792.87168945 366.05794922 792.87168945 365.67919922 794.16772461 C364.31691123 797.90975942 362.50673014 801.16534863 360.42919922 804.53881836 C360.034021 805.18850586 359.63884277 805.83819336 359.23168945 806.50756836 C355.23491267 813.02164773 350.99669618 819.36807044 346.71289062 825.69555664 C345.39252336 827.65576716 344.08668181 829.62496903 342.78466797 831.59741211 C338.50924627 838.07187243 334.22147219 844.49395653 329.42919922 850.60131836 C328.5984113 851.66898098 327.76768849 852.73669427 326.93701172 853.80444336 C310.17309778 875.29512477 292.41805243 895.67605649 273.17919922 914.97631836 C272.70725128 915.45094513 272.23530334 915.9255719 271.74905396 916.4145813 C266.15101107 922.03672377 260.45419409 927.44146863 254.42919922 932.60131836 C252.80072905 934.07666372 251.17518405 935.55525266 249.55419922 937.03881836 C235.61025592 949.60131836 235.61025592 949.60131836 232.42919922 949.60131836 C232.42919922 950.26131836 232.42919922 950.92131836 232.42919922 951.60131836 C230.15506965 953.48061251 227.87155694 955.23906347 225.49169922 956.97631836 C224.77312744 957.50725098 224.05455566 958.03818359 223.31420898 958.58520508 C210.59311856 967.9429633 197.64370717 976.95498361 184.42919922 985.60131836 C183.55779297 986.17237305 182.68638672 986.74342773 181.78857422 987.33178711 C176.69653115 990.60131836 176.69653115 990.60131836 174.42919922 990.60131836 C174.42919922 991.26131836 174.42919922 991.92131836 174.42919922 992.60131836 C172.05728337 993.89893135 169.68195308 995.18948153 167.30419922 996.47631836 C166.63904297 996.84112305 165.97388672 997.20592773 165.28857422 997.58178711 C162.18744913 999.2539624 159.38140739 1000.61623289 155.99951172 1001.67163086 C155.15130859 1001.97842773 154.30310547 1002.28522461 153.42919922 1002.60131836 C153.09919922 1003.59131836 152.76919922 1004.58131836 152.42919922 1005.60131836 C150.23388672 1006.70678711 150.23388672 1006.70678711 147.30419922 1007.78881836 C142.25223684 1009.77351787 137.54905201 1012.05454056 132.80419922 1014.66381836 C127.84189594 1017.37937246 122.92576885 1019.7492296 117.62060547 1021.74194336 C115.47814107 1022.58212547 113.47257737 1023.54509904 111.42919922 1024.60131836 C107.71245558 1026.51939691 103.89447071 1028.02112571 99.99560547 1029.52709961 C97.39406634 1030.6160239 94.97172739 1031.88608127 92.49169922 1033.22631836 C87.31481338 1035.90117988 82.1734549 1036.8696356 76.42919922 1037.60131836 C76.42919922 1038.26131836 76.42919922 1038.92131836 76.42919922 1039.60131836 C69.2446679 1041.85148159 62.06419227 1044.02545547 54.76904297 1045.89038086 C52.46600007 1046.50336136 52.46600007 1046.50336136 50.66357422 1047.56616211 C47.17947901 1049.18029713 43.48953508 1049.76876745 39.74169922 1050.53881836 C32.70816761 1052.00292525 32.70816761 1052.00292525 25.86669922 1054.16381836 C21.62525247 1055.69545191 17.29264055 1056.48819558 12.86669922 1057.28881836 C12.15763428 1057.4203833 11.44856934 1057.55194824 10.71801758 1057.6875 C5.89325425 1058.5195101 1.32437333 1058.71695239 -3.57080078 1058.60131836 C-3.57080078 1059.26131836 -3.57080078 1059.92131836 -3.57080078 1060.60131836 C-19.5387953 1064.80605673 -19.5387953 1064.80605673 -26.57080078 1063.60131836 C-30.1276025 1061.49627245 -31.26549014 1060.51725028 -32.57080078 1056.60131836 C-32.66647704 1055.00120773 -32.70570407 1053.39742303 -32.71124268 1051.79446411 C-32.71695282 1050.80469574 -32.72266296 1049.81492737 -32.72854614 1048.79516602 C-32.73022293 1047.16804688 -32.73022293 1047.16804688 -32.73193359 1045.50805664 C-32.7368985 1044.3647287 -32.7418634 1043.22140076 -32.74697876 1042.04342651 C-32.7616105 1038.25282189 -32.76840373 1034.46225911 -32.77392578 1030.67163086 C-32.77967594 1028.04230752 -32.78543368 1025.4129842 -32.79119873 1022.78366089 C-32.80076873 1017.97268403 -32.80666651 1013.16171622 -32.80969548 1008.35073102 C-32.81417659 1001.27250365 -32.83172848 994.19446936 -32.86069608 987.1163007 C-32.88492461 980.98297769 -32.89264012 974.84973435 -32.89437103 968.71636581 C-32.89740193 966.10803043 -32.90544507 963.49969595 -32.91855621 960.89139175 C-32.93557746 957.24523464 -32.93374587 953.59954967 -32.92724609 949.95336914 C-32.93646088 948.87267151 -32.94567566 947.79197388 -32.95516968 946.67852783 C-32.90345275 937.43485144 -32.90345275 937.43485144 -29.57080078 933.60131836 C-26.03884203 931.24667919 -22.85532553 930.80598383 -18.75830078 930.16381836 C-11.89107687 929.02861218 -5.11898487 927.68820455 1.67138672 926.15209961 C4.42919922 925.60131836 4.42919922 925.60131836 7.42919922 925.60131836 C7.42919922 924.94131836 7.42919922 924.28131836 7.42919922 923.60131836 C9.53239985 923.09727028 11.63679713 922.59821328 13.74169922 922.10131836 C15.49933594 921.68366211 15.49933594 921.68366211 17.29248047 921.25756836 C20.42919922 920.60131836 20.42919922 920.60131836 23.42919922 920.60131836 C23.42919922 919.94131836 23.42919922 919.28131836 23.42919922 918.60131836 C26.72919922 917.94131836 30.02919922 917.28131836 33.42919922 916.60131836 C33.42919922 915.94131836 33.42919922 915.28131836 33.42919922 914.60131836 C34.64736328 914.20299805 35.86552734 913.80467773 37.12060547 913.39428711 C38.74435708 912.8592938 40.368052 912.32412839 41.99169922 911.78881836 C42.7915625 911.5277832 43.59142578 911.26674805 44.41552734 910.99780273 C48.0654283 909.79110079 51.65793653 908.55259671 55.18310547 907.01538086 C58.03341285 905.77373071 60.8543517 904.75881326 63.80419922 903.78881836 C68.47895038 902.12654308 72.08265429 899.92456446 76.09326172 897.05053711 C79.53562751 894.91488876 83.19471304 893.75994012 87.04638672 892.55834961 C89.58029707 891.54063152 90.53201328 890.50116972 92.42919922 888.60131836 C94.91189425 887.13220065 97.39542617 885.7256378 99.92919922 884.35131836 C108.08133432 879.83996031 115.93183785 875.03807591 123.58935547 869.72241211 C124.31638672 869.21822754 125.04341797 868.71404297 125.79248047 868.19458008 C127.240061 867.18699461 128.68418288 866.17441885 130.12451172 865.15649414 C135.21151158 861.60131836 135.21151158 861.60131836 137.42919922 861.60131836 C137.42919922 860.94131836 137.42919922 860.28131836 137.42919922 859.60131836 C139.10131836 858.33300781 139.10131836 858.33300781 141.40185547 856.90209961 C146.16976651 853.82575724 150.51771606 850.42572855 154.86669922 846.78881836 C155.60243164 846.1786084 156.33816406 845.56839844 157.09619141 844.93969727 C161.95243094 840.89211883 166.70852976 836.76035451 171.35107422 832.46850586 C173.63778153 830.41390793 176.02606396 828.51754386 178.42919922 826.60131836 C181.11755173 824.04738347 183.55431179 821.45118327 185.92919922 818.60131836 C188.81965786 815.13276799 191.94854987 812.02013839 195.20654297 808.89819336 C200.23051467 804.00355163 204.65616732 798.7885431 209.03808594 793.31762695 C210.64075021 791.34031388 212.26960489 789.38630761 213.90185547 787.43334961 C214.51464355 786.69785889 215.12743164 785.96236816 215.75878906 785.20458984 C216.96312834 783.760174 218.17031413 782.31812493 219.38085938 780.87890625 C222.90011419 776.64128292 226.05796786 772.29106309 229.06518555 767.67651367 C231.45816884 764.03585537 234.09387982 760.57491592 236.69482422 757.08178711 C238.43449882 754.72931676 238.43449882 754.72931676 239.47607422 752.46459961 C240.42919922 750.60131836 240.42919922 750.60131836 241.88623047 749.20678711 C243.98114854 747.0270116 244.91412501 744.67648884 246.11669922 741.91381836 C246.55369141 740.91995117 246.99068359 739.92608398 247.44091797 738.90209961 C247.76705078 738.1428418 248.09318359 737.38358398 248.42919922 736.60131836 C249.08919922 736.60131836 249.74919922 736.60131836 250.42919922 736.60131836 C250.65607422 735.79694336 250.88294922 734.99256836 251.11669922 734.16381836 C252.41070342 730.65152125 254.00154613 727.69055694 255.85498047 724.45678711 C259.25793112 718.28418927 262.30546386 711.91854991 265.42919922 705.60131836 C266.08919922 705.60131836 266.74919922 705.60131836 267.42919922 705.60131836 C267.51169922 704.96194336 267.59419922 704.32256836 267.67919922 703.66381836 C268.31650864 701.06147154 269.06546582 699.07091957 270.17919922 696.66381836 C273.03306583 690.47344593 275.19621969 684.03486183 277.42919922 677.60131836 C278.08919922 677.60131836 278.74919922 677.60131836 279.42919922 677.60131836 C279.55875 676.76213867 279.55875 676.76213867 279.69091797 675.90600586 C280.86350076 669.21475362 282.93291527 663.06021487 285.30810547 656.70288086 C286.16590339 654.32973957 286.89022364 652.06001594 287.42919922 649.60131836 C288.08919922 649.60131836 288.74919922 649.60131836 289.42919922 649.60131836 C289.55681641 648.74666992 289.68443359 647.89202148 289.81591797 647.01147461 C290.42926565 643.60094896 291.29048998 640.36994555 292.24169922 637.03881836 C295.24165381 626.190582 297.46419147 615.01257789 298.91748047 603.85131836 C299.42919922 600.60131836 299.42919922 600.60131836 300.39526367 597.87939453 C301.54400807 594.23731872 302.0763555 590.68109837 302.48388672 586.90209961 C302.56653778 586.16526443 302.64918884 585.42842926 302.73434448 584.66926575 C303.65680172 576.06164686 304.13226192 567.43305958 304.55419922 558.78881836 C304.6172374 557.53832703 304.6172374 557.53832703 304.68154907 556.26257324 C305.29406149 544.03456092 305.79132141 531.84528093 305.42919922 519.60131836 C305.39922852 518.54960449 305.36925781 517.49789062 305.33837891 516.41430664 C304.93808136 501.4696802 304.93808136 501.4696802 303.63647461 486.58691406 C303.33849933 483.73245826 303.33373801 480.9064432 303.36669922 478.03881836 C303.37572266 477.0062793 303.38474609 475.97374023 303.39404297 474.90991211 C303.41144531 473.7671582 303.41144531 473.7671582 303.42919922 472.60131836 C302.76919922 472.60131836 302.10919922 472.60131836 301.42919922 472.60131836 C301.29344482 471.64354492 301.15769043 470.68577148 301.01782227 469.69897461 C300.50692418 466.11184812 299.98406653 462.52654626 299.45776367 458.94165039 C299.2325425 457.39621721 299.01047418 455.85032087 298.79174805 454.30395508 C298.47496298 452.06841947 298.14649688 449.8348509 297.81591797 447.60131836 C297.72203293 446.92077393 297.62814789 446.24022949 297.53141785 445.5390625 C296.77973534 440.57125025 295.26611882 436.27753211 293.42919922 431.60131836 C292.91659821 429.25836929 292.45740175 426.9030514 292.05419922 424.53881836 C290.77814501 417.76695397 288.83833966 411.50954143 286.56982422 405.01147461 C285.19579545 400.90350503 284.24918551 396.85033821 283.42919922 392.60131836 C282.76919922 392.60131836 282.10919922 392.60131836 281.42919922 392.60131836 C281.17396484 391.5668457 281.17396484 391.5668457 280.91357422 390.51147461 C280.67123047 389.57174805 280.42888672 388.63202148 280.17919922 387.66381836 C279.94716797 386.74729492 279.71513672 385.83077148 279.47607422 384.88647461 C278.1190946 380.62819156 276.2860508 376.66106344 274.42919922 372.60131836 C273.7833372 371.13763355 273.14006334 369.67280368 272.49951172 368.20678711 C268.693902 359.54994306 264.73421251 351.02366045 260.42919922 342.60131836 C259.92517578 341.57264648 259.42115234 340.54397461 258.90185547 339.48413086 C256.62965109 334.84721505 254.34203959 330.32691995 251.55419922 325.97631836 C249.42919922 322.60131836 249.42919922 322.60131836 249.42919922 320.60131836 C248.76919922 320.60131836 248.10919922 320.60131836 247.42919922 320.60131836 C246.90132812 319.58424805 246.90132812 319.58424805 246.36279297 318.54663086 C242.81595497 311.86042451 238.86119497 305.72676227 234.42919922 299.60131836 C233.23941482 297.89457523 232.05190142 296.18624665 230.86669922 294.47631836 C228.20885605 290.66654316 225.45193569 286.95396747 222.59326172 283.29272461 C221.42919922 281.60131836 221.42919922 281.60131836 220.42919922 278.60131836 C219.43919922 278.27131836 218.44919922 277.94131836 217.42919922 277.60131836 C216.44011169 275.88689997 215.45615079 274.16891128 214.51904297 272.42553711 C212.89909924 269.7140184 210.70869445 267.77479056 208.42919922 265.60131836 C207.43938235 264.48567732 206.46151238 263.35939152 205.49169922 262.22631836 C193.34482395 248.23501517 180.60099746 234.24567525 166.05419922 222.72241211 C163.35644833 220.54253305 160.79877321 218.25650352 158.24169922 215.91381836 C154.14329559 212.18916852 149.92628823 208.82642052 145.42919922 205.60131836 C143.53273654 204.22718651 141.63693688 202.85213928 139.74169922 201.47631836 C138.85095703 200.83436523 137.96021484 200.19241211 137.04248047 199.53100586 C135.33317497 198.26882811 133.65373111 196.96490835 132.01123047 195.61694336 C129.06697127 193.3185504 125.99994277 191.40845756 122.80419922 189.47631836 C119.64330253 187.55952746 116.50508706 185.65191025 113.42919922 183.60131836 C113.42919922 182.94131836 113.42919922 182.28131836 113.42919922 181.60131836 C112.42759766 181.36155273 111.42599609 181.12178711 110.39404297 180.87475586 C106.14263604 179.6582356 102.70395302 177.58083864 98.99169922 175.22631836 C97.66482666 174.40787814 96.33671478 173.59144347 95.00732422 172.77709961 C94.38277344 172.39376465 93.75822266 172.01042969 93.11474609 171.61547852 C89.98303328 169.73118897 86.72816196 168.1646566 83.42919922 166.60131836 C81.42756346 165.6045966 79.42770371 164.6043038 77.42919922 163.60131836 C76.40181641 163.08827148 75.37443359 162.57522461 74.31591797 162.04663086 C72.60803916 161.19153592 70.90166972 160.3333962 69.19873047 159.46850586 C60.8185294 155.219861 52.29459264 151.71663418 43.42919922 148.60131836 C43.42919922 147.94131836 43.42919922 147.28131836 43.42919922 146.60131836 C41.77984375 146.23780273 41.77984375 146.23780273 40.09716797 145.86694336 C32.54212018 144.16701479 25.2443672 142.36157182 18.01123047 139.55053711 C13.57495493 137.91965215 9.00534167 136.76969516 4.42919922 135.60131836 C4.42919922 134.94131836 4.42919922 134.28131836 4.42919922 133.60131836 C3.89294922 133.57553711 3.35669922 133.54975586 2.80419922 133.52319336 C-5.58509465 132.91607341 -13.48811638 130.81097309 -21.57080078 128.60131836 C-22.54662109 128.34092773 -23.52244141 128.08053711 -24.52783203 127.81225586 C-30.20232362 126.14382699 -30.20232362 126.14382699 -31.78022861 123.82067871 C-32.68548246 121.27937436 -32.83063786 119.28862658 -32.84495544 116.59155273 C-32.85493057 115.58213623 -32.8649057 114.57271973 -32.87518311 113.53271484 C-32.87584778 112.4312915 -32.87651245 111.32986816 -32.87719727 110.19506836 C-32.88552078 109.03048096 -32.8938443 107.86589355 -32.90242004 106.66601562 C-32.92654349 102.8110827 -32.93529409 98.95631879 -32.94189453 95.10131836 C-32.94859269 93.10210889 -32.95529301 91.10289941 -32.96232945 89.1036911 C-32.98378931 82.81903906 -32.99313395 76.534441 -32.99633789 70.24975586 C-32.9999765 63.76710544 -33.0298981 57.28492749 -33.07174248 50.80242157 C-33.10642251 45.23457974 -33.12188589 39.66689475 -33.12258393 34.09894562 C-33.12337728 30.7742335 -33.13450269 27.45011305 -33.16058159 24.12548828 C-33.18734645 20.41909215 -33.1827142 16.71401079 -33.17016602 13.00756836 C-33.18500031 11.90614502 -33.19983459 10.80472168 -33.21511841 9.66992188 C-33.14326655 2.2414998 -33.14326655 2.2414998 -30.17222595 -1.08097839 C-21.64967168 -5.3979188 -9.08098282 -1.4767745 0 0 Z " fill="#5A69DF" transform="translate(717.57080078125,90.398681640625)"/>
<path d="M0 0 C107.25 0 214.5 0 325 0 C325 28.38 325 56.76 325 86 C246.46 86 167.92 86 87 86 C87 131.87 87 177.74 87 225 C164.55 225 242.1 225 322 225 C322 253.38 322 281.76 322 311 C244.45 311 166.9 311 87 311 C87 357.86 87 404.72 87 453 C164.55 453 242.1 453 322 453 C322 481.38 322 509.76 322 539 C215.74 539 109.48 539 0 539 C0 361.13 0 183.26 0 0 Z " fill="#022744" transform="translate(461,351)"/>
<path d="M0 0 C0.66 0.33 1.32 0.66 2 1 C2 1.99 2 2.98 2 4 C1.34 4 0.68 4 0 4 C0.83333333 6.16666667 0.83333333 6.16666667 3 7 C2.649375 7.78375 2.29875 8.5675 1.9375 9.375 C1.628125 10.24125 1.31875 11.1075 1 12 C1.33 12.66 1.66 13.32 2 14 C1.2575 13.95875 0.515 13.9175 -0.25 13.875 C-3.08758952 14.00398134 -4.58773938 14.57051222 -7 16 C-8.5625 13.6875 -8.5625 13.6875 -10 11 C-9.67 10.01 -9.34 9.02 -9 8 C-9 8.66 -9 9.32 -9 10 C-8.34 10 -7.68 10 -7 10 C-6.34 8.68 -5.68 7.36 -5 6 C-4.34 6 -3.68 6 -3 6 C-3 5.34 -3 4.68 -3 4 C-3.66 3.67 -4.32 3.34 -5 3 C-2.625 1.4375 -2.625 1.4375 0 0 Z " fill="#F9F9F9" transform="translate(272,785)"/>
<path d="M0 0 C0.66 0.33 1.32 0.66 2 1 C2 1.99 2 2.98 2 4 C1.34 4 0.68 4 0 4 C0.83333333 6.16666667 0.83333333 6.16666667 3 7 C2.649375 7.78375 2.29875 8.5675 1.9375 9.375 C1.628125 10.24125 1.31875 11.1075 1 12 C1.33 12.66 1.66 13.32 2 14 C-0.66666667 14 -3.33333333 14 -6 14 C-4.77472971 9.94718288 -3.30119506 6.55639236 -1 3 C-2.32 3.33 -3.64 3.66 -5 4 C-3.36587557 2.29159719 -2.13093906 1.06546953 0 0 Z " fill="#F8F8F8" transform="translate(656,335)"/>
<path d="M0 0 C0.625 1.8125 0.625 1.8125 1 4 C0.34 4.99 -0.32 5.98 -1 7 C-11.51546392 6.09149485 -11.51546392 6.09149485 -16 5.4375 C-20.98552032 4.77689275 -25.98157094 4.92703415 -31 5 C-31.99 5 -32.98 5 -34 5 C-32 3 -32 3 -29.76928711 2.75708008 C-28.41202515 2.76324341 -28.41202515 2.76324341 -27.02734375 2.76953125 C-26.04572266 2.77146484 -25.06410156 2.77339844 -24.05273438 2.77539062 C-23.02470703 2.78763672 -21.99667969 2.79988281 -20.9375 2.8125 C-19.90560547 2.81314453 -18.87371094 2.81378906 -17.81054688 2.81445312 C-10.14015997 2.85984003 -10.14015997 2.85984003 -9 4 C-6.66702567 4.04092937 -4.33294775 4.04241723 -2 4 C-1.34 2.68 -0.68 1.36 0 0 Z " fill="#C3C8EF" transform="translate(721,84)"/>
<path d="M0 0 C0.66 0.33 1.32 0.66 2 1 C1.67 1.99 1.34 2.98 1 4 C0.67 3.67 0.34 3.34 0 3 C-0.81837442 4.41328129 -1.62946219 5.83078346 -2.4375 7.25 C-2.88996094 8.03890625 -3.34242188 8.8278125 -3.80859375 9.640625 C-4.89311602 11.78833468 -5.53148716 13.65205061 -6 16 C-8.0625 13.6875 -8.0625 13.6875 -10 11 C-9.67 10.01 -9.34 9.02 -9 8 C-9 8.66 -9 9.32 -9 10 C-8.34 10 -7.68 10 -7 10 C-6.34 8.68 -5.68 7.36 -5 6 C-4.34 6 -3.68 6 -3 6 C-3 5.34 -3 4.68 -3 4 C-3.66 3.67 -4.32 3.34 -5 3 C-2.625 1.4375 -2.625 1.4375 0 0 Z " fill="#F1F2F6" transform="translate(272,785)"/>
<path d="M0 0 C1.67542976 0.28604898 3.34385343 0.61781233 5 1 C5 2.65 5 4.3 5 6 C0.25 7.125 0.25 7.125 -2 6 C-1.125 1.125 -1.125 1.125 0 0 Z " fill="#F7F7F8" transform="translate(703,81)"/>
<path d="M0 0 C1.485 0.2475 1.485 0.2475 3 0.5 C7.02732942 1.08474517 10.93474623 1.07132024 15 1 C15 1.66 15 2.32 15 3 C10.545 3.495 10.545 3.495 6 4 C6 4.66 6 5.32 6 6 C5.34 5.67 4.68 5.34 4 5 C4.33 4.34 4.66 3.68 5 3 C2.525 2.01 2.525 2.01 0 1 C0 0.67 0 0.34 0 0 Z M3 6 C3.33 6.99 3.66 7.98 4 9 C2.02 9.99 2.02 9.99 0 11 C0.99 9.35 1.98 7.7 3 6 Z " fill="#F4F4F4" transform="translate(1041,1016)"/>
<path d="M0 0 C1.485 0.2475 1.485 0.2475 3 0.5 C7.02732942 1.08474517 10.93474623 1.07132024 15 1 C15 1.66 15 2.32 15 3 C10.545 3.495 10.545 3.495 6 4 C6 4.66 6 5.32 6 6 C5.34 5.67 4.68 5.34 4 5 C4.33 4.34 4.66 3.68 5 3 C2.525 2.01 2.525 2.01 0 1 C0 0.67 0 0.34 0 0 Z M3 6 C3.33 6.99 3.66 7.98 4 9 C2.02 9.99 2.02 9.99 0 11 C0.99 9.35 1.98 7.7 3 6 Z " fill="#F4F4F4" transform="translate(657,1016)"/>
<path d="M0 0 C1.485 0.2475 1.485 0.2475 3 0.5 C7.02732942 1.08474517 10.93474623 1.07132024 15 1 C15 1.66 15 2.32 15 3 C10.545 3.495 10.545 3.495 6 4 C6 4.66 6 5.32 6 6 C5.34 5.67 4.68 5.34 4 5 C4.33 4.34 4.66 3.68 5 3 C2.525 2.01 2.525 2.01 0 1 C0 0.67 0 0.34 0 0 Z M3 6 C3.33 6.99 3.66 7.98 4 9 C2.02 9.99 2.02 9.99 0 11 C0.99 9.35 1.98 7.7 3 6 Z " fill="#F4F4F4" transform="translate(273,566)"/>
<path d="M0 0 C1.485 0.2475 1.485 0.2475 3 0.5 C7.02732942 1.08474517 10.93474623 1.07132024 15 1 C15 1.66 15 2.32 15 3 C10.545 3.495 10.545 3.495 6 4 C6 4.66 6 5.32 6 6 C5.34 5.67 4.68 5.34 4 5 C4.33 4.34 4.66 3.68 5 3 C2.525 2.01 2.525 2.01 0 1 C0 0.67 0 0.34 0 0 Z M3 6 C3.33 6.99 3.66 7.98 4 9 C2.02 9.99 2.02 9.99 0 11 C0.99 9.35 1.98 7.7 3 6 Z " fill="#F4F4F4" transform="translate(1041,116)"/>
<path d="M0 0 C1.485 0.2475 1.485 0.2475 3 0.5 C7.02732942 1.08474517 10.93474623 1.07132024 15 1 C15 1.66 15 2.32 15 3 C10.545 3.495 10.545 3.495 6 4 C6 4.66 6 5.32 6 6 C5.34 5.67 4.68 5.34 4 5 C4.33 4.34 4.66 3.68 5 3 C2.525 2.01 2.525 2.01 0 1 C0 0.67 0 0.34 0 0 Z M3 6 C3.33 6.99 3.66 7.98 4 9 C2.02 9.99 2.02 9.99 0 11 C0.99 9.35 1.98 7.7 3 6 Z " fill="#F4F4F4" transform="translate(657,116)"/>
<path d="M0 0 C1.485 0.2475 1.485 0.2475 3 0.5 C7.02732942 1.08474517 10.93474623 1.07132024 15 1 C15 1.66 15 2.32 15 3 C10.545 3.495 10.545 3.495 6 4 C6 4.66 6 5.32 6 6 C5.34 5.67 4.68 5.34 4 5 C4.33 4.34 4.66 3.68 5 3 C2.525 2.01 2.525 2.01 0 1 C0 0.67 0 0.34 0 0 Z M3 6 C3.33 6.99 3.66 7.98 4 9 C2.02 9.99 2.02 9.99 0 11 C0.99 9.35 1.98 7.7 3 6 Z " fill="#F4F4F4" transform="translate(273,116)"/>
<path d="M0 0 C1.485 0.2475 1.485 0.2475 3 0.5 C7.02732942 1.08474517 10.93474623 1.07132024 15 1 C15 1.66 15 2.32 15 3 C10.545 3.495 10.545 3.495 6 4 C6 4.66 6 5.32 6 6 C5.34 5.67 4.68 5.34 4 5 C4.33 4.34 4.66 3.68 5 3 C2.525 2.01 2.525 2.01 0 1 C0 0.67 0 0.34 0 0 Z M3 6 C3.33 6.99 3.66 7.98 4 9 C3.34 8.67 2.68 8.34 2 8 C2.33 7.34 2.66 6.68 3 6 Z " fill="#F4F4F4" transform="translate(657,566)"/>
<path d="M0 0 C2 1 2 1 3 3 C3.66 3 4.32 3 5 3 C5.66 2.01 6.32 1.02 7 0 C7 1.65 7 3.3 7 5 C8.65 5 10.3 5 12 5 C12 5.33 12 5.66 12 6 C9.69 6.66 7.38 7.32 5 8 C4.67 7.01 4.34 6.02 4 5 C1.49552484 3.78130071 1.49552484 3.78130071 -1 3 C-0.67 2.01 -0.34 1.02 0 0 Z " fill="#5664D7" transform="translate(1056,783)"/>
<path d="M0 0 C2 1 2 1 3 3 C3.66 3 4.32 3 5 3 C5.66 2.01 6.32 1.02 7 0 C7 1.65 7 3.3 7 5 C8.65 5 10.3 5 12 5 C12 5.33 12 5.66 12 6 C9.69 6.66 7.38 7.32 5 8 C4.67 7.01 4.34 6.02 4 5 C1.49552484 3.78130071 1.49552484 3.78130071 -1 3 C-0.67 2.01 -0.34 1.02 0 0 Z " fill="#5664D7" transform="translate(1056,333)"/>
<path d="M0 0 C2 1 2 1 3 3 C3.66 3 4.32 3 5 3 C5.66 2.01 6.32 1.02 7 0 C7 1.65 7 3.3 7 5 C8.65 5 10.3 5 12 5 C12 5.33 12 5.66 12 6 C9.69 6.66 7.38 7.32 5 8 C4.67 7.01 4.34 6.02 4 5 C1.49552484 3.78130071 1.49552484 3.78130071 -1 3 C-0.67 2.01 -0.34 1.02 0 0 Z " fill="#5664D7" transform="translate(288,333)"/>
<path d="M0 0 C0.66 0.33 1.32 0.66 2 1 C1.649375 1.78375 1.29875 2.5675 0.9375 3.375 C0.628125 4.24125 0.31875 5.1075 0 6 C0.33 6.66 0.66 7.32 1 8 C-0.65 7.67 -2.3 7.34 -4 7 C-3.39816251 4.97954558 -2.72693904 2.97888961 -2 1 C-1.34 0.67 -0.68 0.34 0 0 Z " fill="#F8F8F8" transform="translate(657,791)"/>
<path d="M0 0 C0.86625 0.3403125 0.86625 0.3403125 1.75 0.6875 C-2.75 3.6875 -2.75 3.6875 -7.25 6.6875 C-6.87492618 3.96821483 -6.40781339 2.84531339 -4.4375 0.875 C-2.25 -0.3125 -2.25 -0.3125 0 0 Z " fill="#8893E8" transform="translate(693.25,1022.3125)"/>
<path d="M0 0 C0.33 0.66 0.66 1.32 1 2 C-2.96 3.98 -2.96 3.98 -7 6 C-6.3125 3.5625 -6.3125 3.5625 -5 1 C-2.375 0.1875 -2.375 0.1875 0 0 Z " fill="#F4F4F4" transform="translate(1026,1022)"/>
<path d="M0 0 C0.33 0.66 0.66 1.32 1 2 C-2.96 3.98 -2.96 3.98 -7 6 C-6.3125 3.5625 -6.3125 3.5625 -5 1 C-2.375 0.1875 -2.375 0.1875 0 0 Z " fill="#F4F4F4" transform="translate(642,1022)"/>
<path d="M0 0 C0.33 0.66 0.66 1.32 1 2 C-2.96 3.98 -2.96 3.98 -7 6 C-6.3125 3.5625 -6.3125 3.5625 -5 1 C-2.375 0.1875 -2.375 0.1875 0 0 Z " fill="#F4F4F4" transform="translate(258,1022)"/>
<path d="M0 0 C0.66 0.66 1.32 1.32 2 2 C1.67 2.66 1.34 3.32 1 4 C-1.64 4 -4.28 4 -7 4 C-4.77810176 1.77810176 -2.91517292 1.07401108 0 0 Z " fill="#F5F5F5" transform="translate(643,571)"/>
<path d="M0 0 C0.33 0.66 0.66 1.32 1 2 C-2.96 3.98 -2.96 3.98 -7 6 C-6.3125 3.5625 -6.3125 3.5625 -5 1 C-2.375 0.1875 -2.375 0.1875 0 0 Z " fill="#F4F4F4" transform="translate(258,572)"/>
<path d="M0 0 C0.33 0.66 0.66 1.32 1 2 C-2.96 3.98 -2.96 3.98 -7 6 C-6.3125 3.5625 -6.3125 3.5625 -5 1 C-2.375 0.1875 -2.375 0.1875 0 0 Z " fill="#F4F4F4" transform="translate(1026,122)"/>
<path d="M0 0 C0.33 0.66 0.66 1.32 1 2 C-2.96 3.98 -2.96 3.98 -7 6 C-6.3125 3.5625 -6.3125 3.5625 -5 1 C-2.375 0.1875 -2.375 0.1875 0 0 Z " fill="#F4F4F4" transform="translate(642,122)"/>
<path d="M0 0 C0.33 0.66 0.66 1.32 1 2 C-2.96 3.98 -2.96 3.98 -7 6 C-6.3125 3.5625 -6.3125 3.5625 -5 1 C-2.375 0.1875 -2.375 0.1875 0 0 Z " fill="#F4F4F4" transform="translate(258,122)"/>
</svg>
