<?xml version="1.0" encoding="UTF-8"?>
<!DOCTYPE svg PUBLIC "-//W3C//DTD SVG 1.1//EN" "http://www.w3.org/Graphics/SVG/1.1/DTD/svg11.dtd">
<svg xmlns="http://www.w3.org/2000/svg" version="1.1" width="302px" height="178px" style="shape-rendering:geometricPrecision; text-rendering:geometricPrecision; image-rendering:optimizeQuality; fill-rule:evenodd; clip-rule:evenodd" xmlns:xlink="http://www.w3.org/1999/xlink">
<g><path style="opacity:1" fill="#fefefe" d="M -0.5,-0.5 C 100.167,-0.5 200.833,-0.5 301.5,-0.5C 301.5,10.1667 301.5,20.8333 301.5,31.5C 291.328,33.6675 281.661,37.0008 272.5,41.5C 269.848,41.4095 267.515,42.0762 265.5,43.5C 265.158,44.3382 264.492,44.6716 263.5,44.5C 260.088,45.0749 257.088,46.4082 254.5,48.5C 249.07,50.0502 244.07,52.3836 239.5,55.5C 228.044,60.7269 217.044,66.7269 206.5,73.5C 204.973,73.427 203.973,74.0937 203.5,75.5C 168.674,96.6358 137.341,122.302 109.5,152.5C 107.413,153.585 106.08,155.251 105.5,157.5C 103.5,158.833 101.833,160.5 100.5,162.5C 99.0937,162.973 98.427,163.973 98.5,165.5C 95.1385,167.895 92.4719,170.895 90.5,174.5C 89.0937,174.973 88.427,175.973 88.5,177.5C 58.8333,177.5 29.1667,177.5 -0.5,177.5C -0.5,118.167 -0.5,58.8333 -0.5,-0.5 Z"/></g>
<g><path style="opacity:1" fill="#5a69e0" d="M 301.5,31.5 C 301.5,68.5 301.5,105.5 301.5,142.5C 298.351,142.415 295.684,143.415 293.5,145.5C 290.843,145.935 288.509,146.935 286.5,148.5C 283.702,149.65 281.035,150.983 278.5,152.5C 276.973,152.427 275.973,153.094 275.5,154.5C 270.016,156.407 265.016,159.073 260.5,162.5C 258.973,162.427 257.973,163.094 257.5,164.5C 254.489,165.669 251.822,167.336 249.5,169.5C 247.973,169.427 246.973,170.094 246.5,171.5C 243.32,173.255 240.32,175.255 237.5,177.5C 188.167,177.5 138.833,177.5 89.5,177.5C 90.1098,176.609 90.4431,175.609 90.5,174.5C 92.4719,170.895 95.1385,167.895 98.5,165.5C 99.9063,165.027 100.573,164.027 100.5,162.5C 101.833,160.5 103.5,158.833 105.5,157.5C 107.935,156.73 109.269,155.063 109.5,152.5C 137.341,122.302 168.674,96.6358 203.5,75.5C 205.027,75.573 206.027,74.9063 206.5,73.5C 217.044,66.7269 228.044,60.7269 239.5,55.5C 245.245,54.457 250.245,52.1237 254.5,48.5C 258.165,48.4982 261.165,47.1648 263.5,44.5C 264.492,44.6716 265.158,44.3382 265.5,43.5C 268.152,43.5905 270.485,42.9238 272.5,41.5C 281.661,37.0008 291.328,33.6675 301.5,31.5 Z"/></g>
<g><path style="opacity:1" fill="#939aea" d="M 272.5,41.5 C 270.485,42.9238 268.152,43.5905 265.5,43.5C 267.515,42.0762 269.848,41.4095 272.5,41.5 Z"/></g>
<g><path style="opacity:1" fill="#878fe7" d="M 263.5,44.5 C 261.165,47.1648 258.165,48.4982 254.5,48.5C 257.088,46.4082 260.088,45.0749 263.5,44.5 Z"/></g>
<g><path style="opacity:1" fill="#7f88e5" d="M 254.5,48.5 C 250.245,52.1237 245.245,54.457 239.5,55.5C 244.07,52.3836 249.07,50.0502 254.5,48.5 Z"/></g>
<g><path style="opacity:1" fill="#9199e9" d="M 206.5,73.5 C 206.027,74.9063 205.027,75.573 203.5,75.5C 203.973,74.0937 204.973,73.427 206.5,73.5 Z"/></g>
<g><path style="opacity:1" fill="#fcfcfe" d="M 301.5,142.5 C 301.5,154.167 301.5,165.833 301.5,177.5C 280.167,177.5 258.833,177.5 237.5,177.5C 240.32,175.255 243.32,173.255 246.5,171.5C 248.027,171.573 249.027,170.906 249.5,169.5C 251.822,167.336 254.489,165.669 257.5,164.5C 259.027,164.573 260.027,163.906 260.5,162.5C 265.016,159.073 270.016,156.407 275.5,154.5C 277.027,154.573 278.027,153.906 278.5,152.5C 281.035,150.983 283.702,149.65 286.5,148.5C 289.491,148.834 291.824,147.834 293.5,145.5C 295.684,143.415 298.351,142.415 301.5,142.5 Z"/></g>
<g><path style="opacity:1" fill="#d2d5f5" d="M 293.5,145.5 C 291.824,147.834 289.491,148.834 286.5,148.5C 288.509,146.935 290.843,145.935 293.5,145.5 Z"/></g>
<g><path style="opacity:1" fill="#c3c7f2" d="M 278.5,152.5 C 278.027,153.906 277.027,154.573 275.5,154.5C 275.973,153.094 276.973,152.427 278.5,152.5 Z"/></g>
<g><path style="opacity:1" fill="#818ae6" d="M 109.5,152.5 C 109.269,155.063 107.935,156.73 105.5,157.5C 106.08,155.251 107.413,153.585 109.5,152.5 Z"/></g>
<g><path style="opacity:1" fill="#9098e9" d="M 100.5,162.5 C 100.573,164.027 99.9063,165.027 98.5,165.5C 98.427,163.973 99.0937,162.973 100.5,162.5 Z"/></g>
<g><path style="opacity:1" fill="#bfc4f2" d="M 260.5,162.5 C 260.027,163.906 259.027,164.573 257.5,164.5C 257.973,163.094 258.973,162.427 260.5,162.5 Z"/></g>
<g><path style="opacity:1" fill="#c3c7f2" d="M 249.5,169.5 C 249.027,170.906 248.027,171.573 246.5,171.5C 246.973,170.094 247.973,169.427 249.5,169.5 Z"/></g>
<g><path style="opacity:1" fill="#9299e9" d="M 90.5,174.5 C 90.4431,175.609 90.1098,176.609 89.5,177.5C 89.1667,177.5 88.8333,177.5 88.5,177.5C 88.427,175.973 89.0937,174.973 90.5,174.5 Z"/></g>
</svg>
