<svg width="549" height="91" viewBox="0 0 549 91" fill="none" xmlns="http://www.w3.org/2000/svg">
<g clip-path="url(#clip0_250_466)">
<path d="M0 72.43H40.36V61.76H10.8V41.51H40.36V30.83H10.8V15.59H40.61V4.91998H0V72.43Z" fill="#002643"/>
<path d="M82.23 23.1499C76.22 19.2099 67.74 19.1899 61.14 22.7799C59.52 23.6599 57.97 24.7699 56.5 26.0999V21.3199H46V72.4299H56.5V53.0899C56.5 47.1499 56.77 43.0799 57.29 40.9799C58.09 37.8699 59.7 35.3399 62.23 33.2299C64.7 31.1599 67.42 30.1599 70.53 30.1599C73.2 30.1599 75.27 30.7599 76.84 31.9999C78.41 33.2399 79.46 35.0899 80.05 37.7299C80.33 38.8499 80.65 41.5399 80.65 47.9499V72.4299H91.15V46.1899C91.15 39.4699 90.46 34.5999 89.04 31.2899C87.59 27.8999 85.3 25.1599 82.23 23.1399V23.1499Z" fill="#002643"/>
<path d="M139.67 26.1699C137.89 24.6399 136.05 23.4099 134.17 22.5099C126.85 19.0299 117.88 19.3699 110.34 23.6799C106.23 26.0399 102.95 29.2899 100.61 33.3599C98.28 37.4099 97.09 41.8499 97.09 46.5399C97.09 51.2299 98.23 55.5899 100.47 59.5199C102.73 63.4599 105.96 66.6299 110.07 68.9499C117.64 73.2399 126.89 73.5499 134.6 69.9299C136.39 69.0899 138.06 68.0599 139.58 66.8499C139.34 70.6999 138.69 72.7499 138.12 73.8399C137.14 75.7199 135.43 77.3399 133.03 78.6399C130.55 79.9799 127.43 80.6499 123.75 80.6499C120.07 80.6499 116.85 79.9899 114.38 78.6899C111.94 77.3999 109.99 75.4399 108.41 72.6999L107.76 71.5699H96.44L97.9 74.7599C99.69 78.66 101.72 81.7099 103.92 83.8099C106.13 85.9199 109.02 87.6199 112.5 88.8599C115.92 90.0699 119.8 90.6899 124.02 90.6899C129.85 90.6899 134.95 89.41 139.17 86.8999C143.49 84.3199 146.57 80.5999 148.3 75.8599C149.56 72.5399 150.16 67.5899 150.16 60.7199V21.3199H139.65V26.1699H139.67ZM137.95 38.1899C139.3 40.5899 139.98 43.3799 139.98 46.4899C139.98 51.3099 138.56 55.0499 135.62 57.9499C132.67 60.8599 128.84 62.2699 123.9 62.2699C118.96 62.2699 115.17 60.8399 112.15 57.8999C109.15 54.9699 107.69 51.3499 107.69 46.8299C107.69 43.8799 108.42 41.0899 109.88 38.5499C111.34 35.9799 113.31 34.0299 115.89 32.5799C118.44 31.1399 121.26 30.3999 124.25 30.3999C127.24 30.3999 129.75 31.0899 132.26 32.5099C134.75 33.9099 136.6 35.7699 137.96 38.1799L137.95 38.1899Z" fill="#002643"/>
<path d="M258.61 26.1699C256.83 24.6399 254.99 23.4099 253.11 22.5099C245.79 19.0299 236.82 19.3699 229.28 23.6799C225.17 26.0399 221.89 29.2899 219.55 33.3599C217.22 37.4099 216.03 41.8499 216.03 46.5399C216.03 51.2299 217.17 55.5899 219.41 59.5199C221.67 63.4599 224.9 66.6299 229.01 68.9499C236.57 73.2399 245.83 73.5499 253.54 69.9299C255.33 69.0899 257 68.0599 258.52 66.8499C258.28 70.6999 257.63 72.7499 257.06 73.8399C256.08 75.7199 254.37 77.3399 251.97 78.6399C249.49 79.9799 246.37 80.6499 242.69 80.6499C239.01 80.6499 235.79 79.9899 233.32 78.6899C230.88 77.3999 228.93 75.4399 227.35 72.6999L226.7 71.5699H215.38L216.84 74.7599C218.63 78.66 220.66 81.7099 222.86 83.8099C225.07 85.9199 227.96 87.6199 231.44 88.8599C234.86 90.0699 238.74 90.6899 242.96 90.6899C248.79 90.6899 253.89 89.41 258.11 86.8999C262.43 84.3199 265.51 80.5999 267.24 75.8599C268.5 72.5399 269.1 67.5899 269.1 60.7199V21.3199H258.59V26.1699H258.61ZM256.89 38.1899C258.24 40.5899 258.92 43.3799 258.92 46.4899C258.92 51.3099 257.5 55.0499 254.56 57.9499C251.61 60.8599 247.78 62.2699 242.84 62.2699C237.9 62.2699 234.11 60.8399 231.09 57.8999C228.09 54.9699 226.63 51.3499 226.63 46.8299C226.63 43.8799 227.36 41.0899 228.82 38.5499C230.28 35.9799 232.25 34.0299 234.83 32.5799C237.38 31.1399 240.2 30.3999 243.19 30.3999C246.18 30.3999 248.69 31.0899 251.2 32.5099C253.69 33.9099 255.54 35.7699 256.9 38.1799L256.89 38.1899Z" fill="#002643"/>
<path d="M317.02 53.56C315.32 56.38 313.76 58.43 312.37 59.63C311.01 60.81 309.32 61.78 307.35 62.5C305.36 63.23 303.29 63.6 301.2 63.6C296.88 63.6 293.36 62.13 290.43 59.09C287.95 56.53 286.5 53.4 286.03 49.59H327.82L327.8 47.32C327.74 40.47 325.84 34.64 322.17 30.02C317 23.46 310 20.12 301.37 20.12C292.74 20.12 286.14 23.38 281.11 29.81C277.18 34.83 275.19 40.61 275.19 47C275.19 53.8 277.54 59.98 282.17 65.37C286.89 70.85 293.46 73.62 301.71 73.62C305.4 73.62 308.77 73.04 311.74 71.91C314.71 70.76 317.42 69.08 319.78 66.9C322.14 64.73 324.23 61.87 326.01 58.39L327.02 56.41L318.11 51.72L317.02 53.55V53.56ZM315.89 39.92H287.36C288.36 37.48 289.63 35.56 291.15 34.21C294.04 31.63 297.4 30.38 301.44 30.38C303.87 30.38 306.22 30.9 308.42 31.92C310.64 32.96 312.36 34.26 313.68 35.91C314.54 36.98 315.27 38.32 315.88 39.92H315.89Z" fill="#002643"/>
<path d="M345.41 3.46997H338.37V74.33H372.69V67.52H345.41V3.46997Z" fill="#002643"/>
<path d="M428.44 31.62L428.41 31.57C425.78 27.92 422.69 25.15 419.23 23.33C415.77 21.51 411.84 20.58 407.56 20.58C400.15 20.58 393.71 23.29 388.45 28.62C383.17 33.94 380.5 40.46 380.5 47.98C380.5 55.5 383.15 62.24 388.37 67.6C393.6 72.95 399.99 75.66 407.37 75.66C411.54 75.66 415.43 74.78 418.9 73.05C422.4 71.33 425.61 68.72 428.42 65.3L428.45 65.26V74.32H435.06V21.93H428.45V31.62H428.44ZM390.13 58.79C388.25 55.45 387.29 51.88 387.29 48.19C387.29 44.5 388.23 40.9 390.1 37.59C391.96 34.28 394.52 31.66 397.69 29.8C400.85 27.97 404.35 27.04 408.1 27.04C413.92 27.04 418.89 29.1 422.87 33.15C426.85 37.21 428.87 42.34 428.87 48.39C428.87 52.36 427.97 55.98 426.2 59.13C424.43 62.3 421.86 64.84 418.56 66.7C415.26 68.56 411.73 69.49 408.06 69.49C404.39 69.49 400.95 68.54 397.77 66.67C394.6 64.81 392.03 62.16 390.14 58.79H390.13Z" fill="#002643"/>
<path d="M497.39 28.64C492.17 23.3 485.79 20.58 478.41 20.58C474.28 20.58 470.42 21.45 466.92 23.16C463.43 24.87 460.25 27.49 457.44 30.94L457.4 30.99V1.67999H450.69V74.32H457.4V64.62L457.44 64.68C460.08 68.31 463.16 71.08 466.62 72.91C470.07 74.73 473.97 75.66 478.21 75.66C485.62 75.66 492.04 72.95 497.31 67.61C502.58 62.27 505.26 55.75 505.26 48.21C505.26 40.67 502.61 34 497.39 28.63V28.64ZM488.05 66.44C484.89 68.27 481.4 69.2 477.66 69.2C471.84 69.2 466.88 67.14 462.91 63.08C458.94 59.02 456.92 53.9 456.92 47.84C456.92 43.86 457.82 40.24 459.58 37.08C461.35 33.91 463.93 31.36 467.25 29.49C470.55 27.62 474.08 26.67 477.76 26.67C481.44 26.67 484.8 27.62 487.99 29.49C491.16 31.35 493.73 34 495.62 37.37C497.5 40.72 498.46 44.31 498.46 48.04C498.46 51.77 497.52 55.32 495.65 58.65C493.78 61.98 491.23 64.61 488.06 66.45L488.05 66.44Z" fill="#002643"/>
<path d="M179.62 19.99C179.53 19.91 179.42 19.87 179.3 19.87C179.28 19.87 179.25 19.87 179.23 19.87C166.01 21.93 156.04 33.53 156.04 46.86C156.04 60.19 166.01 71.79 179.23 73.85C179.25 73.85 179.28 73.85 179.3 73.85C179.41 73.85 179.53 73.81 179.62 73.73C179.73 73.64 179.79 73.5 179.79 73.36V67.7C179.79 67.47 179.63 67.27 179.4 67.22C169.67 65.29 162.61 56.72 162.61 46.85C162.61 36.98 169.67 28.4 179.4 26.48C179.63 26.43 179.79 26.24 179.79 26V20.34C179.79 20.2 179.73 20.06 179.62 19.97V19.99Z" fill="#5A69E0"/>
<path d="M179.3 30.03C179.3 30.03 179.22 30.03 179.18 30.05C171.43 32.01 166.02 38.93 166.02 46.88C166.02 54.83 171.43 61.74 179.18 63.71C179.22 63.71 179.26 63.73 179.3 63.73C179.41 63.73 179.51 63.69 179.6 63.63C179.72 63.54 179.79 63.4 179.79 63.25V57.84C179.79 57.64 179.66 57.46 179.48 57.39C175.12 55.74 172.2 51.52 172.2 46.9C172.2 42.28 175.13 38.06 179.48 36.41C179.67 36.34 179.79 36.16 179.79 35.96V30.55C179.79 30.4 179.72 30.26 179.6 30.17C179.51 30.1 179.41 30.07 179.3 30.07V30.03Z" fill="#5A69E0"/>
<path d="M199.03 21.33V26.24C197.52 24.88 195.9 23.74 194.17 22.83C190.98 21.16 187.4 20.26 183.54 20.15V30.43C188 30.5 191.67 32.04 194.74 35.18C197.89 38.38 199.42 42.29 199.42 47.12C199.42 50.25 198.72 53.1 197.34 55.56C195.94 58.04 194.01 59.96 191.42 61.41C188.92 62.81 186.23 63.53 183.55 63.59V73.61C187.23 73.48 190.69 72.65 193.84 71.09C195.67 70.19 197.41 69.04 199.04 67.67V72.44H209.46V21.33H199.04H199.03Z" fill="#002643"/>
<path d="M520.21 14.1C520.21 5.73 526.63 0 534.24 0C541.85 0 548.21 5.73 548.21 14.1C548.21 22.47 541.79 28 534.24 28C526.69 28 520.21 22.53 520.21 14.1ZM546.02 14.1C546.02 7.18 540.73 1.91 534.24 1.91C527.75 1.91 522.39 7.18 522.39 14.1C522.39 21.02 527.68 26.16 534.24 26.16C540.8 26.16 546.02 21.09 546.02 14.1ZM529.09 6.26H534.24C537.13 6.26 540.09 7.31 540.09 10.94C540.09 12.78 538.68 14.56 536.99 14.96L540.87 21.35H538.26L535.16 15.68H531.28V21.35H529.09V6.26ZM533.61 13.84C536.08 13.84 537.77 13.12 537.77 11.07C537.77 9.36 536.85 8.17 533.89 8.17H531.28V13.84H533.61Z" fill="#002643"/>
</g>
<defs>
<clipPath id="clip0_250_466">
<rect width="548.21" height="90.68" fill="white"/>
</clipPath>
</defs>
</svg>
